<?xml version="1.0" encoding="utf-8"?>
<svg xmlns="http://www.w3.org/2000/svg" fill="none" height="20" viewBox="0 0 20 20" width="20">
<g id="icon only">
<path clip-rule="evenodd" d="M7.62814 18.0552C7.35371 18.09 6.82205 18.1595 6.7706 18.1595H2.5L5.38136 4.44731C6.89064 7.43654 8.39994 10.4605 9.89209 13.4845C10.1494 14.1449 10.3895 14.8574 10.3895 15.5352C10.3895 17.0472 9.34325 17.7771 7.62814 18.0552ZM13.7682 15.3788C12.8935 13.6583 12.0188 11.9204 11.1613 10.1998C10.681 9.24398 10.2008 8.25337 9.72057 7.3149C9.56621 6.98469 9.39471 6.68925 9.25749 6.37641C9.10312 6.02884 8.76012 4.96871 8.76012 4.46472V4.09974C8.77728 3.92595 8.79441 3.71739 8.84586 3.56099C9.36039 1.90997 11.2642 1.75355 12.3961 1.66664L16.6667 1.66663L13.7682 15.3788Z" fill="url(#paint0_linear_4766_36079)" fill-rule="evenodd" id="Shape"/>
</g>
<defs>
<linearGradient gradientUnits="userSpaceOnUse" id="paint0_linear_4766_36079" x1="-7.45608" x2="-7.45608" y1="1.66663" y2="24.6246">
<stop stop-color="#ED1500"/>
<stop offset="1" stop-color="#D70900"/>
</linearGradient>
</defs>
</svg>