<?xml version="1.0" encoding="utf-8"?>
<svg xmlns="http://www.w3.org/2000/svg" fill="none" height="20" viewBox="0 0 20 20" width="20">
<g id="icon only">
<g id="Group 1">
<path d="M4.19776 3.33337H18.055L17.0149 4.15215L4.16254 14.2314L2.77026 15.3318L3.16583 14.8719L9.85204 7.21646L4.59742 7.2189C4.10603 7.19693 3.59662 7.30599 3.18877 7.60143C3.0609 7.69611 2.94704 7.80817 2.85052 7.93431L3.23545 6.62394L4.19776 3.33337Z" fill="#868686" id="Path"/>
<path d="M17.5125 4.53015L17.0457 5.08767L10.3922 12.8726C10.3677 12.8986 10.3464 12.9271 10.3333 12.9621L11.1072 12.9539L13.4282 12.9458C13.5232 12.9401 13.6182 12.9328 13.7132 12.9409L15.4781 12.9295L15.8483 12.923C16.1308 12.8982 16.402 12.8009 16.6354 12.6406C16.8565 12.4876 17.0391 12.2743 17.1693 12.0326C17.2201 11.9293 17.2807 11.8291 17.302 11.7136C17.3036 11.8015 17.2774 11.8861 17.2594 11.9716L16.1947 16.8468H2.89113C2.48164 16.8452 2.0746 16.8492 1.66675 16.8444L17.2291 4.75397L17.5125 4.53015Z" fill="#EB3D00" id="Path_2"/>
</g>
</g>
</svg>