<?xml version="1.0" encoding="utf-8"?>
<svg xmlns="http://www.w3.org/2000/svg" fill="none" height="20" viewBox="0 0 20 20" width="20">
<g id="icon only">
<g id="Group 2">
<path clip-rule="evenodd" d="M16.5729 7.0207C16.6137 7.27461 16.6411 7.53424 16.6536 7.79879H16.6511V7.86431V8.02157V8.33281L16.6486 8.50972C16.6162 9.11089 16.5079 9.68586 16.3348 10.2264C15.9185 11.4476 15.1409 12.5091 14.1252 13.2872C13.0613 14.1038 11.7376 14.6108 10.289 14.6714L10.1516 14.6763L10.0068 14.6779H9.96763L9.85607 14.6763L9.75034 14.673L9.71121 14.6714L9.57134 14.6632L9.43981 14.6533C8.43911 14.5714 7.50169 14.2741 6.67583 13.8097V15.9294C6.67473 16.568 6.4158 17.1801 5.956 17.6309C5.4962 18.0817 4.8732 18.3344 4.22405 18.3333H3.33325V8.17145C3.33325 5.76675 4.67112 3.66673 6.66834 2.53891L6.70996 2.51434C7.22106 2.22631 7.76899 2.00678 8.33921 1.86157L8.4183 1.84273C8.91199 1.72725 9.42732 1.66664 9.9568 1.66664H9.97595H10.0043C11.1625 1.66463 12.3014 1.95872 13.3094 2.52008V2.52171L13.326 2.5299C15.0027 3.46934 16.2207 5.09923 16.5729 7.0207ZM9.91937 12.4665C10.6711 12.4665 11.3521 12.1864 11.9199 11.7097H11.9207C12.8332 10.9423 13.4301 9.66785 13.4301 8.22306C13.4301 7.06985 13.0496 6.02312 12.4311 5.25814C11.7942 4.4694 10.9051 3.98043 9.92103 3.98043C8.32259 3.98043 6.9739 5.27206 6.54932 7.03955C6.49271 7.39419 6.46357 7.75785 6.46357 8.13133C6.46273 8.7143 6.53573 9.29511 6.68086 9.86033C7.21034 11.3911 8.46079 12.4665 9.91937 12.4665Z" fill="#1DCF9F" fill-rule="evenodd" id="Shape"/>
<path d="M11.5636 14.0948C9.26164 14.0948 7.3177 12.3092 6.68499 9.85704C6.53986 9.29182 6.46686 8.71102 6.4677 8.12805C6.46771 7.76249 6.49637 7.39748 6.55345 7.03627C6.99219 4.26299 9.06766 2.16297 11.5652 2.16297C12.0922 2.16297 12.6001 2.25635 13.0788 2.4308C13.157 2.47175 13.3119 2.52253 13.3119 2.52253V2.52008C12.3039 1.95872 11.165 1.66463 10.0067 1.66664H9.97844C9.97178 1.66664 9.96595 1.66664 9.95929 1.66664C9.42981 1.66664 8.91448 1.72725 8.42079 1.84273L8.3417 1.86157C7.77149 2.00678 7.22355 2.22631 6.71246 2.51434L6.67083 2.53891C4.67111 3.66673 3.33325 5.76675 3.33325 8.17146V18.3333H4.22405C4.8732 18.3344 5.4962 18.0817 5.956 17.6309C6.41579 17.1801 6.67472 16.568 6.67583 15.9294V13.8097C7.50169 14.2741 8.43911 14.5714 9.4398 14.6533L9.57134 14.6632L9.7112 14.6714L9.75033 14.673L9.85606 14.6763L9.96762 14.6779H10.0067L10.1516 14.6763L10.289 14.6714C11.7376 14.6108 13.0613 14.1038 14.1252 13.2872C13.3726 13.8007 12.4968 14.0956 11.5611 14.0956L11.5636 14.0948Z" fill="#1DCF9F" id="Path"/>
<path d="M16.3373 10.2273C16.5104 9.6867 16.6187 9.11174 16.6511 8.51056L16.6536 8.33365L16.6453 8.02241L16.6536 7.86516V7.79963C16.6414 7.53873 16.6144 7.27869 16.5729 7.02073C16.2207 5.09926 15.0027 3.46937 13.326 2.52993L13.3094 2.52174C13.3094 2.52174 13.1554 2.47096 13.0763 2.43001C12.6009 2.25637 12.0914 2.16382 11.5652 2.16382C9.06768 2.16382 6.99221 4.26466 6.55347 7.03711C6.97805 5.26962 8.32674 3.97799 9.92518 3.97799C10.9092 3.97799 11.7984 4.46696 12.4352 5.25569C13.0538 6.02068 13.4343 7.06741 13.4343 8.22062C13.4343 9.66541 12.8373 10.9398 11.9249 11.7073C11.3571 12.184 10.6761 12.4641 9.92435 12.4641C8.46577 12.4641 7.21532 11.3887 6.68584 9.85788C7.31855 12.3101 9.26416 14.0956 11.5644 14.0956C12.4985 14.0956 13.3743 13.8007 14.1269 13.2872C15.1426 12.5091 15.9202 11.4476 16.3364 10.2264L16.3373 10.2273Z" fill="url(#paint0_linear_4766_35990)" id="Path_2"/>
</g>
</g>
<defs>
<linearGradient gradientUnits="userSpaceOnUse" id="paint0_linear_4766_35990" x1="1.72074" x2="1.72074" y1="2.16382" y2="13.8388">
<stop stop-color="#108767"/>
<stop offset="0.54733" stop-color="#1DCF9F"/>
</linearGradient>
</defs>
</svg>