<?xml version="1.0" encoding="utf-8"?>
<svg xmlns="http://www.w3.org/2000/svg" fill="none" height="20" viewBox="0 0 20 20" width="20">
<g id="icon only">
<path clip-rule="evenodd" d="M13.6813 5.63403C14.7575 5.63403 15.629 4.74583 15.629 3.65012C15.629 2.55483 14.7575 1.66663 13.6813 1.66663C12.6052 1.66663 11.7325 2.55483 11.7325 3.65012C11.7325 4.74583 12.6052 5.63403 13.6813 5.63403ZM4.16846 7.63255C4.12636 7.43861 4.77112 7.327 5.4559 7.21242C6.80002 6.98921 9.11524 6.65778 11.062 6.65778C11.5101 6.65778 11.9398 6.67475 12.3328 6.71507C12.9917 6.78212 13.4602 6.92895 13.5998 7.12118C13.8674 7.48614 13.3968 8.62514 13.2785 8.86491C11.5559 12.3473 5.97521 18.5732 5.215 18.3262C5.03806 18.2686 5.53782 17.4507 6.23499 16.3096C7.55284 14.1527 9.57609 10.8413 9.06773 9.32874C9.01813 9.17894 8.85267 9.02871 8.70221 8.92177C7.70068 8.21249 5.99246 7.96111 4.98311 7.81258C4.50385 7.74205 4.18214 7.69471 4.16846 7.63255Z" fill="#DA3230" fill-rule="evenodd" id="Union"/>
</g>
</svg>