<?xml version="1.0" encoding="utf-8"?>
<svg xmlns="http://www.w3.org/2000/svg" fill="none" height="44" viewBox="0 0 294 44" width="294">
<g clip-path="url(#clip0_8585_1880)">
<path d="M7.68932 17.0757C7.68932 18.0327 7.35931 18.8303 6.69928 19.4683C6.05025 20.0953 5.05471 20.4088 3.71266 20.4088H1.50156V25.2105H0V13.7096H3.71266C5.01071 13.7096 5.99525 14.0231 6.66628 14.6501C7.34831 15.2771 7.68932 16.0857 7.68932 17.0757ZM3.71266 19.1713C4.54869 19.1713 5.16472 18.9898 5.56073 18.6268C5.95675 18.2637 6.15476 17.7467 6.15476 17.0757C6.15476 15.6566 5.34072 14.9471 3.71266 14.9471H1.50156V19.1713H3.71266Z" fill="#FF0041"/>
<path d="M14.0682 25.359C13.2212 25.359 12.4512 25.1665 11.7581 24.7815C11.0761 24.3965 10.5371 23.852 10.1411 23.148C9.75605 22.4329 9.56354 21.6079 9.56354 20.6728C9.56354 19.7488 9.76155 18.9348 10.1576 18.2307C10.5646 17.5157 11.1146 16.9712 11.8076 16.5972C12.5007 16.2122 13.2762 16.0197 14.1342 16.0197C14.9923 16.0197 15.7678 16.2122 16.4608 16.5972C17.1539 16.9712 17.6984 17.5102 18.0944 18.2142C18.5014 18.9183 18.7049 19.7378 18.7049 20.6728C18.7049 21.6079 18.4959 22.4329 18.0779 23.148C17.6709 23.852 17.1154 24.3965 16.4113 24.7815C15.7073 25.1665 14.9263 25.359 14.0682 25.359ZM14.0682 24.039C14.6073 24.039 15.1133 23.9125 15.5863 23.6595C16.0593 23.4065 16.4388 23.0269 16.7248 22.5209C17.0219 22.0149 17.1704 21.3989 17.1704 20.6728C17.1704 19.9468 17.0274 19.3308 16.7413 18.8248C16.4553 18.3187 16.0813 17.9447 15.6193 17.7027C15.1573 17.4497 14.6568 17.3232 14.1177 17.3232C13.5677 17.3232 13.0617 17.4497 12.5997 17.7027C12.1487 17.9447 11.7856 18.3187 11.5106 18.8248C11.2356 19.3308 11.0981 19.9468 11.0981 20.6728C11.0981 21.4099 11.2301 22.0314 11.4941 22.5374C11.7691 23.0434 12.1322 23.423 12.5832 23.676C13.0342 23.918 13.5292 24.039 14.0682 24.039Z" fill="#FF0041"/>
<path d="M33.2937 16.1682L30.4721 25.2105H28.921L26.7429 18.0327L24.5648 25.2105H23.0138L20.1757 16.1682H21.7102L23.7893 23.7585L26.0334 16.1682H27.568L29.7626 23.775L31.8086 16.1682H33.2937Z" fill="#FF0041"/>
<path d="M43.6033 20.3428C43.6033 20.6288 43.5868 20.9314 43.5538 21.2504H36.3265C36.3815 22.1414 36.684 22.8399 37.234 23.346C37.795 23.841 38.4715 24.0885 39.2636 24.0885C39.9126 24.0885 40.4516 23.94 40.8806 23.643C41.3207 23.335 41.6287 22.9279 41.8047 22.4219H43.4217C43.1797 23.291 42.6957 24.0005 41.9697 24.5505C41.2437 25.0895 40.3416 25.359 39.2636 25.359C38.4055 25.359 37.6355 25.1665 36.9535 24.7815C36.2824 24.3965 35.7544 23.852 35.3694 23.148C34.9844 22.4329 34.7919 21.6079 34.7919 20.6728C34.7919 19.7378 34.9789 18.9183 35.3529 18.2142C35.7269 17.5102 36.2494 16.9712 36.9205 16.5972C37.6025 16.2122 38.3835 16.0197 39.2636 16.0197C40.1216 16.0197 40.8806 16.2067 41.5407 16.5807C42.2007 16.9547 42.7067 17.4717 43.0587 18.1317C43.4217 18.7808 43.6033 19.5178 43.6033 20.3428ZM42.0522 20.0293C42.0522 19.4573 41.9257 18.9678 41.6727 18.5608C41.4197 18.1427 41.0732 17.8292 40.6331 17.6202C40.2041 17.4002 39.7256 17.2902 39.1976 17.2902C38.4385 17.2902 37.7895 17.5322 37.2505 18.0162C36.7225 18.5003 36.42 19.1713 36.343 20.0293H42.0522Z" fill="#FF0041"/>
<path d="M47.6558 17.6367C47.9198 17.1197 48.2939 16.7182 48.7779 16.4322C49.2729 16.1462 49.8724 16.0032 50.5764 16.0032V17.5542H50.1804C48.4974 17.5542 47.6558 18.4673 47.6558 20.2933V25.2105H46.1543V16.1682H47.6558V17.6367Z" fill="#FF0041"/>
<path d="M61.1291 20.3428C61.1291 20.6288 61.1126 20.9314 61.0796 21.2504H53.8523C53.9073 22.1414 54.2098 22.8399 54.7599 23.346C55.3209 23.841 55.9974 24.0885 56.7895 24.0885C57.4385 24.0885 57.9775 23.94 58.4065 23.643C58.8465 23.335 59.1545 22.9279 59.3306 22.4219H60.9476C60.7056 23.291 60.2216 24.0005 59.4956 24.5505C58.7695 25.0895 57.8675 25.359 56.7895 25.359C55.9314 25.359 55.1614 25.1665 54.4794 24.7815C53.8083 24.3965 53.2803 23.852 52.8953 23.148C52.5103 22.4329 52.3178 21.6079 52.3178 20.6728C52.3178 19.7378 52.5048 18.9183 52.8788 18.2142C53.2528 17.5102 53.7753 16.9712 54.4464 16.5972C55.1284 16.2122 55.9094 16.0197 56.7895 16.0197C57.6475 16.0197 58.4065 16.2067 59.0665 16.5807C59.7266 16.9547 60.2326 17.4717 60.5846 18.1317C60.9476 18.7808 61.1291 19.5178 61.1291 20.3428ZM59.5781 20.0293C59.5781 19.4573 59.4516 18.9678 59.1986 18.5608C58.9455 18.1427 58.599 17.8292 58.159 17.6202C57.73 17.4002 57.2515 17.2902 56.7234 17.2902C55.9644 17.2902 55.3154 17.5322 54.7764 18.0162C54.2483 18.5003 53.9458 19.1713 53.8688 20.0293H59.5781Z" fill="#FF0041"/>
<path d="M63.1191 20.6563C63.1191 19.7323 63.3061 18.9238 63.6801 18.2307C64.0542 17.5267 64.5657 16.9822 65.2147 16.5972C65.8747 16.2122 66.6118 16.0197 67.4258 16.0197C68.1298 16.0197 68.7843 16.1847 69.3894 16.5147C69.9944 16.8337 70.4564 17.2572 70.7754 17.7852V13H72.2935V25.2105H70.7754V23.511C70.4784 24.05 70.0384 24.4955 69.4554 24.8475C68.8724 25.1885 68.1903 25.359 67.4093 25.359C66.6063 25.359 65.8747 25.161 65.2147 24.765C64.5657 24.369 64.0542 23.8135 63.6801 23.0985C63.3061 22.3834 63.1191 21.5694 63.1191 20.6563ZM70.7754 20.6728C70.7754 19.9908 70.6379 19.3968 70.3629 18.8908C70.0879 18.3848 69.7139 17.9997 69.2409 17.7357C68.7789 17.4607 68.2673 17.3232 67.7063 17.3232C67.1453 17.3232 66.6338 17.4552 66.1717 17.7192C65.7097 17.9832 65.3412 18.3683 65.0662 18.8743C64.7912 19.3803 64.6537 19.9743 64.6537 20.6563C64.6537 21.3494 64.7912 21.9544 65.0662 22.4714C65.3412 22.9774 65.7097 23.368 66.1717 23.643C66.6338 23.907 67.1453 24.039 67.7063 24.039C68.2673 24.039 68.7789 23.907 69.2409 23.643C69.7139 23.368 70.0879 22.9774 70.3629 22.4714C70.6379 21.9544 70.7754 21.3549 70.7754 20.6728Z" fill="#FF0041"/>
<path d="M81.8696 17.8512C82.1777 17.3122 82.6287 16.8722 83.2227 16.5312C83.8167 16.1902 84.4933 16.0197 85.2523 16.0197C86.0663 16.0197 86.7979 16.2122 87.4469 16.5972C88.0959 16.9822 88.6074 17.5267 88.9814 18.2307C89.3555 18.9238 89.5425 19.7323 89.5425 20.6563C89.5425 21.5694 89.3555 22.3834 88.9814 23.0985C88.6074 23.8135 88.0904 24.369 87.4304 24.765C86.7814 25.161 86.0553 25.359 85.2523 25.359C84.4713 25.359 83.7837 25.1885 83.1897 24.8475C82.6067 24.5065 82.1667 24.072 81.8696 23.544V25.2105H80.3681V13H81.8696V17.8512ZM88.0079 20.6563C88.0079 19.9743 87.8704 19.3803 87.5954 18.8743C87.3204 18.3683 86.9464 17.9832 86.4733 17.7192C86.0113 17.4552 85.4998 17.3232 84.9388 17.3232C84.3888 17.3232 83.8772 17.4607 83.4042 17.7357C82.9422 17.9997 82.5682 18.3903 82.2822 18.9073C82.0072 19.4133 81.8696 20.0018 81.8696 20.6728C81.8696 21.3549 82.0072 21.9544 82.2822 22.4714C82.5682 22.9774 82.9422 23.368 83.4042 23.643C83.8772 23.907 84.3888 24.039 84.9388 24.039C85.4998 24.039 86.0113 23.907 86.4733 23.643C86.9464 23.368 87.3204 22.9774 87.5954 22.4714C87.8704 21.9544 88.0079 21.3494 88.0079 20.6563Z" fill="#FF0041"/>
<path d="M99.8763 16.1682L94.431 29.4677H92.88L94.662 25.1115L91.0154 16.1682H92.682L95.5201 23.4945L98.3252 16.1682H99.8763Z" fill="#FF0041"/>
<g clip-path="url(#clip1_8585_1880)">
<path d="M110.942 -1.07901L115.928 2.04407L120.914 -1.07901L125.899 2.04407L130.885 -1.07901V7.30963H110.942V-1.07901Z" fill="#FF0041"/>
<path d="M116.541 33.0567H110.942V10.1058H116.541V33.0567Z" fill="#FF0041"/>
<path d="M117.101 21.5813L124.304 10.1058H130.885L123.681 21.5813L130.885 33.0567H124.304L117.101 21.5813Z" fill="#FF0041"/>
<path d="M131.777 14.8369H137.375V33.0569H131.777V14.8369Z" fill="#FF0041"/>
<path d="M151.885 23.1763C151.885 20.6909 150.51 19.3172 148.382 19.3172C146.254 19.3172 144.879 20.6909 144.879 23.1763V33.0567H139.28V14.8368H144.879V17.2569C145.992 15.7198 147.956 14.6407 150.412 14.6407C154.635 14.6407 157.45 17.5185 157.45 22.4241V33.0567H151.885V23.1763Z" fill="#FF0041"/>
<path d="M168.578 19.448C166.483 19.448 164.584 21.0178 164.584 23.9284C164.584 26.8391 166.483 28.4743 168.578 28.4743C170.707 28.4743 172.573 26.8717 172.573 23.9611C172.573 21.0506 170.707 19.448 168.578 19.448ZM166.942 14.5752C169.626 14.5752 171.59 15.7852 172.573 17.4205V14.8369H178.171V33.0528C178.171 37.9256 175.355 42.079 169.037 42.079C163.602 42.079 160.066 39.3319 159.575 34.9823H165.108C165.468 36.3558 166.843 37.2388 168.775 37.2388C170.903 37.2388 172.573 36.1269 172.573 33.0528V30.4691C171.558 32.0717 169.626 33.3471 166.942 33.3471C162.456 33.3471 158.888 29.6844 158.888 23.9284C158.888 18.1727 162.456 14.5752 166.942 14.5752Z" fill="#FF0041"/>
<path d="M180.125 10.1058H186.738L193.187 25.9997L199.572 10.1058H206.152V33.0567H200.554V19.2956L195.414 33.0567H190.896L185.723 19.2629V33.0567H180.125V10.1058Z" fill="#FF0041"/>
<path d="M217.345 19.448C215.25 19.448 213.351 21.0178 213.351 23.9284C213.351 26.8391 215.25 28.4743 217.345 28.4743C219.474 28.4743 221.34 26.8717 221.34 23.9611C221.34 21.0506 219.474 19.448 217.345 19.448ZM215.709 14.5752C218.426 14.5752 220.357 15.8179 221.34 17.4205V14.8369H226.938V33.0567H221.34V30.5019C220.325 32.1043 218.393 33.3471 215.676 33.3471C211.223 33.3471 207.655 29.6844 207.655 23.9284C207.655 18.1726 211.223 14.5752 215.709 14.5752Z" fill="#FF0041"/>
<path d="M228.869 10.1058H234.467V22.2605L240 14.8369H246.908L239.313 23.9939L246.949 33.0567H240.012L234.467 25.4328V33.0567H228.869V10.1058Z" fill="#FF0041"/>
<path d="M250.391 22.1952H257.397C257.397 20.2002 255.826 19.0556 253.96 19.0556C252.126 19.0556 250.719 20.1676 250.391 22.1952ZM254.025 33.3471C248.656 33.3471 244.793 29.7497 244.793 23.9612C244.793 18.1727 248.59 14.5752 254.025 14.5752C259.362 14.5752 263.127 18.1072 263.127 23.6669C263.127 24.1901 263.094 24.7461 263.028 25.3021H250.359C250.555 27.6894 252.028 28.8014 253.829 28.8014C255.4 28.8014 256.284 28.0165 256.743 27.0353H262.701C261.817 30.5999 258.576 33.3471 254.025 33.3471Z" fill="#FF0041"/>
<path d="M270.306 33.0567H264.708V14.8368H270.306V17.8782C271.583 15.9487 273.58 14.6406 276.036 14.6406V20.56H274.497C271.845 20.56 270.306 21.4757 270.306 24.6153V33.0567Z" fill="#FF0041"/>
<path d="M284.659 33.3169C279.781 33.3169 276.507 30.6025 276.245 27.0706H281.778C281.909 28.346 283.054 29.1964 284.593 29.1964C286.034 29.1964 286.787 28.5421 286.787 27.7246C286.787 24.7813 276.834 26.9071 276.834 20.2028C276.834 17.0959 279.486 14.5452 284.266 14.5452C288.98 14.5452 291.599 17.1614 291.96 20.7588H286.787C286.623 19.516 285.674 18.6985 284.102 18.6985C282.793 18.6985 282.073 19.2217 282.073 20.1046C282.073 23.0153 291.96 20.9549 292.058 27.7574C292.058 30.9296 289.242 33.3169 284.659 33.3169Z" fill="#FF0041"/>
</g>
</g>
<defs>
<clipPath id="clip0_8585_1880">
<rect fill="white" height="44" width="294"/>
</clipPath>
<clipPath id="clip1_8585_1880">
<rect fill="white" height="45" transform="translate(110 -1.99998)" width="183"/>
</clipPath>
</defs>
</svg>